<?xml version="1.0" encoding="utf-8"?>
<!-- Generator: Adobe Illustrator 19.0.0, SVG Export Plug-In . SVG Version: 6.00 Build 0)  -->
<svg version="1.1" id="Layer_1" xmlns="http://www.w3.org/2000/svg" xmlns:xlink="http://www.w3.org/1999/xlink" x="0px" y="0px"
	 viewBox="0 0 300 300" style="enable-background:new 0 0 300 300;" xml:space="preserve">
<style type="text/css">
	.st0{fill:#231F20;}
	.st1{fill:#FFFFFF;}
	.st2{fill:#FFFFFF;stroke:#231F20;stroke-width:10;stroke-miterlimit:10;}
</style>
<polygon id="XMLID_5_" class="st0" points="46.4,130 46.4,280 104.9,220.3 "/>
<polygon id="XMLID_7_" class="st0" points="253.9,130 253.9,280 195.5,220.3 "/>
<g id="XMLID_1_">
	<circle id="XMLID_32_" class="st0" cx="150" cy="130" r="103.6"/>
</g>
<g id="XMLID_8_">
	<path id="XMLID_22_" class="st1" d="M150,228.6c-54.4,0-98.6-44.2-98.6-98.6c0-6.5,0.6-12.9,1.9-19.1c12.3,8.7,27,13.4,42.2,13.4
		c18.6,0,35.9-6.8,49.5-19.2c13.5,12.4,30.9,19.2,49.5,19.2c19.1,0,37.1-7.3,50.7-20.4c2.3,8.5,3.5,17.2,3.5,26.1
		C248.6,184.4,204.4,228.6,150,228.6z"/>
	<path id="XMLID_19_" class="st0" d="M144.9,111.6c13.9,11.4,31.1,17.6,49.5,17.6c17.5,0,34.1-5.8,47.7-16.2
		c1,5.6,1.5,11.2,1.5,16.9c0,51.6-42,93.6-93.6,93.6s-93.6-42-93.6-93.6c0-3.6,0.2-7.3,0.6-10.9c11.6,6.6,24.9,10.1,38.4,10.1
		C113.8,129.3,131,123.1,144.9,111.6 M247.2,94.2c-12.5,15.3-31.5,25.1-52.8,25.1c-19.5,0-37-8.2-49.5-21.3
		c-12.4,13.1-30,21.3-49.5,21.3c-17.4,0-33.2-6.5-45.2-17.2c-2.5,8.9-3.8,18.3-3.8,27.9c0,57.2,46.4,103.6,103.6,103.6
		S253.6,187.2,253.6,130C253.6,117.4,251.3,105.3,247.2,94.2L247.2,94.2z"/>
</g>
<circle id="XMLID_2_" class="st0" cx="104.9" cy="152.1" r="8"/>
<circle id="XMLID_4_" class="st0" cx="193.5" cy="152.1" r="8"/>
<path id="XMLID_6_" class="st2" d="M178.1,185.1c-5.5,9.8-16,16.4-28,16.4c-12.2,0-22.7-6.7-28.2-16.7"/>
</svg>
